<?xml version="1.0" encoding="UTF-8"?>
<svg version="1.1" xmlns="http://www.w3.org/2000/svg" width="500" height="117">
<path d="M0 0 C1.79244141 0.01740234 1.79244141 0.01740234 3.62109375 0.03515625 C5.41740234 0.04869141 5.41740234 0.04869141 7.25 0.0625 C8.17683594 0.07410156 9.10367188 0.08570313 10.05859375 0.09765625 C13.48383976 8.39706984 16.43041947 16.8251714 19.32226562 25.32226562 C19.66193359 26.31162109 20.00160156 27.30097656 20.3515625 28.3203125 C20.65602295 29.21500244 20.9604834 30.10969238 21.27416992 31.03149414 C21.88179491 33.05755469 21.88179491 33.05755469 23.05859375 34.09765625 C23.38657959 33.13875488 23.71456543 32.17985352 24.05249023 31.19189453 C25.26803565 27.63932589 26.48542169 24.08739032 27.70336914 20.53564453 C28.23056583 18.99740571 28.75726106 17.45899493 29.28344727 15.92041016 C30.03921308 13.71081019 30.79677139 11.50183192 31.5546875 9.29296875 C31.79013779 8.60333038 32.02558807 7.91369202 32.26817322 7.20315552 C33.94472204 2.32539966 33.94472204 2.32539966 35.05859375 0.09765625 C39.34859375 0.09765625 43.63859375 0.09765625 48.05859375 0.09765625 C48.05859375 16.59765625 48.05859375 33.09765625 48.05859375 50.09765625 C44.75859375 50.09765625 41.45859375 50.09765625 38.05859375 50.09765625 C37.72859375 41.18765625 37.39859375 32.27765625 37.05859375 23.09765625 C36.06859375 26.39765625 35.07859375 29.69765625 34.05859375 33.09765625 C33.24402571 35.21746685 32.39610153 37.32518525 31.49609375 39.41015625 C30.87541016 40.85841797 30.87541016 40.85841797 30.2421875 42.3359375 C29.65630859 43.70298828 29.65630859 43.70298828 29.05859375 45.09765625 C28.38682619 46.76227349 27.71843934 48.42827732 27.05859375 50.09765625 C23.75859375 50.09765625 20.45859375 50.09765625 17.05859375 50.09765625 C13.75859375 40.52765625 10.45859375 30.95765625 7.05859375 21.09765625 C6.72859375 30.66765625 6.39859375 40.23765625 6.05859375 50.09765625 C2.75859375 50.09765625 -0.54140625 50.09765625 -3.94140625 50.09765625 C-3.96604826 43.13761659 -3.98423847 36.17760209 -3.99633789 29.2175293 C-4.00137966 26.84773313 -4.0082129 24.4779401 -4.0168457 22.1081543 C-4.02891815 18.71011586 -4.03463596 15.3121184 -4.0390625 11.9140625 C-4.04422379 10.8474086 -4.04938507 9.7807547 -4.05470276 8.68177795 C-4.05477829 7.70083664 -4.05485382 6.71989532 -4.05493164 5.70922852 C-4.05715225 4.84096939 -4.05937286 3.97271027 -4.06166077 3.07814026 C-3.86522817 -0.15692835 -3.29375967 0.10935457 0 0 Z " fill="#020202" transform="translate(119.94140625,33.90234375)"/>
<path d="M0 0 C3.76324512 0.54738111 4.067227 0.83344288 6.4375 3.5 C8.75398799 4.53842565 11.08653024 5.5421975 13.4375 6.5 C14.4375 7.5 14.4375 7.5 14.53515625 9.34765625 C14.50260417 11.3984375 14.47005208 13.44921875 14.4375 15.5 C15.365625 15.561875 16.29375 15.62375 17.25 15.6875 C20.4375 16.5 20.4375 16.5 22.25 18.875 C23.4375 21.5 23.4375 21.5 24.4375 24.5 C22.6875 26.5 22.6875 26.5 20.4375 28.5 C19.1175 28.5 17.7975 28.5 16.4375 28.5 C16.128125 29.7065625 16.128125 29.7065625 15.8125 30.9375 C15.131875 32.2059375 15.131875 32.2059375 14.4375 33.5 C11.3125 34.3125 11.3125 34.3125 8.4375 34.5 C11.33068369 35.77655181 11.33068369 35.77655181 13.875 34.8125 C16.65561353 33.38828332 18.27674426 31.73045754 20.4375 29.5 C22.6875 28.25 22.6875 28.25 24.4375 27.5 C28.21656018 34.27081616 28.21656018 34.27081616 27.4375 38.5 C26.7775 39.11875 26.1175 39.7375 25.4375 40.375 C23.03770393 42.43842427 23.03770393 42.43842427 23.4375 46 C23.4375 49.5 23.4375 49.5 21.625 51.9375 C19.4375 53.5 19.4375 53.5 16.4375 53.5 C16.664375 54.386875 16.89125 55.27375 17.125 56.1875 C17.49740885 60.13503382 16.8353157 61.4170941 14.4375 64.5 C11.14204554 66.69696964 8.22452822 67.41799194 4.4375 68.5 C2.9525 69.49 2.9525 69.49 1.4375 70.5 C-1 70.9375 -1 70.9375 -3.5625 70.5 C-6.57217087 67.6822025 -7.81527221 65.57050553 -7.953125 61.51171875 C-7.92678842 60.069791 -7.8794454 58.6281136 -7.8125 57.1875 C-7.79445312 56.44693359 -7.77640625 55.70636719 -7.7578125 54.94335938 C-7.71097337 53.1283429 -7.63923789 51.31399834 -7.5625 49.5 C-0.24542683 48.15853659 -0.24542683 48.15853659 2.9375 49.75 C4.4375 51.5 4.4375 51.5 4.4375 54.5 C2.4575 54.995 2.4575 54.995 0.4375 55.5 C0.4375 56.16 0.4375 56.82 0.4375 57.5 C1.0975 57.83 1.7575 58.16 2.4375 58.5 C2.4375 57.84 2.4375 57.18 2.4375 56.5 C4.0875 56.5 5.7375 56.5 7.4375 56.5 C7.7675 57.82 8.0975 59.14 8.4375 60.5 C7.75054575 55.82871111 6.53526647 51.20929119 2.75 48.125 C-0.45040603 47.1521213 -0.45040603 47.1521213 -7.5625 47.5 C-7.5625 41.89 -7.5625 36.28 -7.5625 30.5 C-6.2425 30.83 -4.9225 31.16 -3.5625 31.5 C-0.10463985 32.00007794 -0.10463985 32.00007794 3.4375 31.5 C6.16639272 29.35484511 6.16639272 29.35484511 8.4375 26.5 C9.345 25.63375 10.2525 24.7675 11.1875 23.875 C13.62754674 21.63466888 13.62754674 21.63466888 14.4375 18.5 C13.7775 18.5 13.1175 18.5 12.4375 18.5 C12.1075 19.82 11.7775 21.14 11.4375 22.5 C9.0625 23.125 9.0625 23.125 6.4375 23.5 C5.7775 22.84 5.1175 22.18 4.4375 21.5 C4.4375 20.51 4.4375 19.52 4.4375 18.5 C3.7775 18.5 3.1175 18.5 2.4375 18.5 C3.6233237 21.87503669 4.71323689 24.14722731 7.4375 26.5 C5.875 28.5 5.875 28.5 3.4375 30.5 C-0.96453429 30.96337203 -2.8419164 30.98038907 -6.5625 28.5 C-7.98927273 24.21968182 -7.827156 20.10957758 -7.875 15.625 C-7.90400391 14.72652344 -7.93300781 13.82804687 -7.96289062 12.90234375 C-8.00382449 8.6389238 -7.93970064 6.15108111 -5.765625 2.3984375 C-3.5625 0.5 -3.5625 0.5 0 0 Z " fill="#020202" transform="translate(69.5625,22.5)"/>
<path d="M0 0 C6.43733906 -0.36437768 6.43733906 -0.36437768 8.70703125 1.10546875 C10.6102999 3.89424608 10.39757122 6.15945953 10.375 9.5 C10.38660156 11.21703125 10.38660156 11.21703125 10.3984375 12.96875 C10 16 10 16 8.83203125 17.89453125 C6.25175149 19.45150177 4.29983623 19.2929354 1.3125 19.1875 C-0.17830078 19.14689453 -0.17830078 19.14689453 -1.69921875 19.10546875 C-2.45847656 19.07066406 -3.21773437 19.03585938 -4 19 C-2.80375 19.37125 -1.6075 19.7425 -0.375 20.125 C0.63433594 20.43824219 0.63433594 20.43824219 1.6640625 20.7578125 C4.67714849 21.23247915 4.67714849 21.23247915 10 19 C10 25.93 10 32.86 10 40 C7.03 39.34 4.06 38.68 1 38 C-2.44277631 39.12672679 -4.32879522 39.80674705 -6.125 43 C-6.41375 43.66 -6.7025 44.32 -7 45 C-7.70125 45.515625 -8.4025 46.03125 -9.125 46.5625 C-9.74375 47.036875 -10.3625 47.51125 -11 48 C-11 48.99 -11 49.98 -11 51 C-10.34 49.68 -9.68 48.36 -9 47 C-7.35 47 -5.7 47 -4 47 C-3.34 48.32 -2.68 49.64 -2 51 C-1.34 51 -0.68 51 0 51 C-1.86566488 47.37206002 -1.86566488 47.37206002 -5 45 C-4.0518738 42.62968451 -3.31103322 41.23327492 -1.25 39.6875 C1.91642567 38.71998105 3.85522426 38.99634817 7 40 C11.02093357 44.58859478 10.44564566 49.86345431 10.375 55.625 C10.38660156 56.57890625 10.39820313 57.5328125 10.41015625 58.515625 C10.40628906 59.43085937 10.40242188 60.34609375 10.3984375 61.2890625 C10.39505371 62.12131348 10.39166992 62.95356445 10.38818359 63.81103516 C9.91289348 66.49119315 9.12554851 67.35006295 7 69 C4.625 69.875 4.625 69.875 2 70 C-0.3125 68.8125 -0.3125 68.8125 -3 67 C-4.41545235 66.39299387 -5.83219592 65.78899264 -7.25 65.1875 C-10.8531616 63.42324008 -10.8531616 63.42324008 -12.0625 59.9375 C-12 57 -12 57 -11 54 C-11.7425 54.0825 -12.485 54.165 -13.25 54.25 C-16 54 -16 54 -18.25 52.25 C-21.07916667 48.6125 -21.07916667 48.6125 -21 46 C-18.75 43.25 -18.75 43.25 -16 41 C-15.01 41 -14.02 41 -13 41 C-12.67 39.68 -12.34 38.36 -12 37 C-8.535 36.505 -8.535 36.505 -5 36 C-5 35.34 -5 34.68 -5 34 C-6.46184058 34.22860058 -7.91955419 34.48370392 -9.375 34.75 C-10.18710937 34.88921875 -10.99921875 35.0284375 -11.8359375 35.171875 C-14.61983552 36.23719338 -14.80569181 37.36428537 -16 40 C-19.125 41.25 -19.125 41.25 -22 42 C-24.22004799 37.69049508 -24.14885105 34.68377735 -23 30 C-22.01 29.34 -21.02 28.68 -20 28 C-20.04125 26.906875 -20.0825 25.81375 -20.125 24.6875 C-20 21 -20 21 -17.625 18.0625 C-15 16 -15 16 -13 16 C-13.226875 15.278125 -13.45375 14.55625 -13.6875 13.8125 C-14.08883261 10.20050653 -13.10595709 8.88594119 -11 6 C-9 4 -9 4 -5.375 3.875 C-3.704375 3.936875 -3.704375 3.936875 -2 4 C-1.34 2.68 -0.68 1.36 0 0 Z " fill="#010101" transform="translate(50,23)"/>
<path d="M0 0 C6.2184375 -0.0928125 6.2184375 -0.0928125 12.5625 -0.1875 C13.85615479 -0.21481201 15.14980957 -0.24212402 16.48266602 -0.27026367 C22.75449603 -0.3155248 27.52781686 -0.1972306 33 3 C36.06175196 6.45681672 36.45618943 9.60942221 36.3046875 14.0703125 C35.86951607 16.82639823 34.59064818 18.74658175 33 21 C33 21.66 33 22.32 33 23 C33.78375 23.598125 34.5675 24.19625 35.375 24.8125 C38.25872619 27.21560516 39.08095446 28.40736743 40 32 C40.47696886 37.24665744 39.86233294 40.55844889 37 45 C32.18332219 49.34675802 29.67613249 50.12468963 23.2421875 50.09765625 C22.02901855 50.09515869 20.81584961 50.09266113 19.56591797 50.09008789 C18.01791504 50.08098389 16.46991211 50.07187988 14.875 50.0625 C9.96625 50.041875 5.0575 50.02125 0 50 C0 33.5 0 17 0 0 Z M11 8 C11 11.96 11 15.92 11 20 C12.7325 20.061875 14.465 20.12375 16.25 20.1875 C17.22453125 20.22230469 18.1990625 20.25710937 19.203125 20.29296875 C22.37468742 19.96075202 23.67040307 19.11327721 26 17 C25.81870185 13.56206661 25.81870185 13.56206661 25 10 C21.97790903 7.85706276 19.37969047 7.77948183 15.75 7.875 C13.39875 7.936875 13.39875 7.936875 11 8 Z M11 28 C11 32.62 11 37.24 11 42 C14.09375 42.061875 14.09375 42.061875 17.25 42.125 C18.41015625 42.14820313 19.5703125 42.17140625 20.765625 42.1953125 C23.84681133 42.00925052 25.4785909 41.71695953 28 40 C29.42041821 37.15916359 29.31452272 35.14522722 29 32 C27.49623765 29.67695095 27.49623765 29.67695095 25 28 C21.4964365 27.51675794 21.4964365 27.51675794 17.75 27.75 C14.40875 27.87375 14.40875 27.87375 11 28 Z " fill="#010101" transform="translate(289,34)"/>
<path d="M0 0 C3.3 0 6.6 0 10 0 C10.92754041 12.07736927 10.99468907 23.96243723 10.5625 36.0625 C10.50906278 37.71937852 10.45632548 39.37627977 10.40429688 41.03320312 C10.27755048 45.02244204 10.1415039 49.01125843 10 53 C6.7 53 3.4 53 0 53 C-0.33 52.01 -0.66 51.02 -1 50 C-1.433125 50.474375 -1.86625 50.94875 -2.3125 51.4375 C-5.61391149 54.49436249 -9.45434334 54.33964839 -13.71875 54.27734375 C-18.68989372 53.67297525 -21.3369285 50.84228001 -24.3125 47.0625 C-27.69286083 40.92777109 -28.00849794 33.57397493 -26.50390625 26.75 C-24.77017833 21.57820146 -22.02550507 17.51275254 -17 15 C-15.04550156 14.8518456 -13.0848947 14.77875151 -11.125 14.75 C-10.07570313 14.72421875 -9.02640625 14.6984375 -7.9453125 14.671875 C-5 15 -5 15 -1 18 C-0.67 12.06 -0.34 6.12 0 0 Z M-14 25 C-16.98247442 29.57655557 -16.61396955 34.74628586 -16 40 C-14.68944108 43.28904021 -14.68944108 43.28904021 -12 45 C-8.5 45.75 -8.5 45.75 -5 45 C-2.09282927 42.78136971 -1.16018357 41.48055071 0 38 C0.24891725 33.51948957 0.29402072 29.93260694 -2 26 C-6.63929522 22.63651096 -8.88844299 22.4442215 -14 25 Z " fill="#010101" transform="translate(268,31)"/>
<path d="M0 0 C3.31103188 2.07044272 5.38625918 4.72031005 6.85546875 8.27734375 C7.66559618 12.83157362 8.33349417 16.84326749 6.85546875 21.27734375 C-1.06453125 21.27734375 -8.98453125 21.27734375 -17.14453125 21.27734375 C-15.49375223 25.02904799 -15.49375223 25.02904799 -13.14453125 28.27734375 C-8.43430355 28.87098815 -5.11731846 28.91263336 -1.08203125 26.27734375 C-0.44265625 25.61734375 0.19671875 24.95734375 0.85546875 24.27734375 C2.83546875 25.59734375 4.81546875 26.91734375 6.85546875 28.27734375 C6.59979996 31.72887236 5.59349801 32.52222944 2.98046875 34.96484375 C-2.68723424 39.15894396 -8.32529559 38.76572402 -15.14453125 38.27734375 C-20.35977945 36.57053525 -23.00266206 33.72832511 -26.14453125 29.27734375 C-29.02176426 23.11184445 -29.08819195 16.4450436 -26.95703125 10.02734375 C-25.12412626 5.68716307 -22.39187143 2.71807651 -18.4140625 0.16796875 C-13.04202306 -1.94016377 -5.4515542 -1.83704468 0 0 Z M-15.58203125 9.65234375 C-17.31502587 12.05463515 -17.31502587 12.05463515 -17.14453125 14.27734375 C-12.19453125 14.27734375 -7.24453125 14.27734375 -2.14453125 14.27734375 C-2.80453125 12.29734375 -3.46453125 10.31734375 -4.14453125 8.27734375 C-8.45711623 6.12105126 -12.14774084 6.30611207 -15.58203125 9.65234375 Z " fill="#020202" transform="translate(436.14453125,46.72265625)"/>
<path d="M0 0 C1.21429688 -0.02578125 2.42859375 -0.0515625 3.6796875 -0.078125 C7.39308278 0.27553169 9.18974277 0.99858406 12.125 3.25 C15.82934645 8.80651968 15.25013036 14.60193739 15.1875 21.0625 C15.18298828 21.94615234 15.17847656 22.82980469 15.17382812 23.74023438 C15.16209866 25.91018559 15.14416495 28.08010172 15.125 30.25 C16.445 30.25 17.765 30.25 19.125 30.25 C19.62 33.715 19.62 33.715 20.125 37.25 C16.63695905 39.57536063 15.22359246 39.58457898 11.125 39.25 C8.45331798 38.21101255 7.16825521 37.29325521 5.125 35.25 C4.50625 35.91 3.8875 36.57 3.25 37.25 C-1.11065825 40.04082128 -4.82355343 40.21025901 -9.875 39.25 C-12.99209136 37.55375149 -15.26429088 35.47141825 -16.875 32.25 C-17.39426583 27.91710974 -17.39867499 24.3449568 -15.5 20.375 C-12.28378391 17.7713965 -9.39194057 16.96966978 -5.42578125 15.94140625 C-2.06214346 15.02966982 0.95917214 13.69526924 4.125 12.25 C3.795 11.26 3.465 10.27 3.125 9.25 C-2.67509895 8.78599208 -5.22474588 9.867997 -9.875 13.25 C-10.865 13.25 -11.855 13.25 -12.875 13.25 C-14.6875 11 -14.6875 11 -15.875 8.25 C-14.95008732 4.75588542 -12.85541768 3.14662943 -9.875 1.25 C-6.42834258 0.10111419 -3.63148095 0.0460653 0 0 Z M-0.3125 21.625 C-1.11558594 21.88023438 -1.91867187 22.13546875 -2.74609375 22.3984375 C-5.04246699 23.15485413 -5.04246699 23.15485413 -6.875 25.25 C-6.58516731 28.55683466 -6.58516731 28.55683466 -4.875 31.25 C-0.68187227 31.69011973 -0.68187227 31.69011973 2.9375 29.875 C5.32763961 26.60428264 5.21188392 24.24666044 5.125 20.25 C3.24283645 20.25 1.4617746 21.05155445 -0.3125 21.625 Z " fill="#020202" transform="translate(350.875,45.75)"/>
<path d="M0 0 C3.3 0 6.6 0 10 0 C10.33 1.32 10.66 2.64 11 4 C11.5775 3.34 12.155 2.68 12.75 2 C17.66281296 -1.02326952 22.37366698 -0.7714778 28 0 C32.22731315 2.2827491 33.55945515 4.52157948 35 9 C35.22705078 12.22973633 35.22705078 12.22973633 35.1953125 15.83203125 C35.18886719 17.12431641 35.18242187 18.41660156 35.17578125 19.74804688 C35.15907327 21.1028673 35.14214342 22.45768501 35.125 23.8125 C35.11496003 25.18684251 35.10583596 26.56119203 35.09765625 27.93554688 C35.07411242 31.29054317 35.04122567 34.64518199 35 38 C31.7 38 28.4 38 25 38 C24.97494385 37.25838623 24.9498877 36.51677246 24.92407227 35.75268555 C24.80813868 32.39744672 24.68540015 29.04249056 24.5625 25.6875 C24.52318359 24.52025391 24.48386719 23.35300781 24.44335938 22.15039062 C24.40146484 21.03212891 24.35957031 19.91386719 24.31640625 18.76171875 C24.27974854 17.73006592 24.24309082 16.69841309 24.20532227 15.63549805 C24.09838758 12.89251742 24.09838758 12.89251742 23 10 C18.82569213 9.03115275 18.82569213 9.03115275 14.6875 9.75 C12.68716985 10.98166743 12.68716985 10.98166743 12 14 C11.85110253 15.84466442 11.7520899 17.69357275 11.68359375 19.54296875 C11.64169922 20.61611328 11.59980469 21.68925781 11.55664062 22.79492188 C11.49766602 24.47424805 11.49766602 24.47424805 11.4375 26.1875 C11.39431641 27.31865234 11.35113281 28.44980469 11.30664062 29.61523438 C11.2005099 32.41001025 11.09974603 35.20498898 11 38 C7.37 38 3.74 38 0 38 C0 25.46 0 12.92 0 0 Z " fill="#010101" transform="translate(199,46)"/>
<path d="M0 0 C1.62109375 1.10546875 1.62109375 1.10546875 3.74609375 3.10546875 C2.67208267 6.02064167 1.96799199 7.88357051 -0.25390625 10.10546875 C-2.51665413 9.75191439 -4.20479477 9.13002449 -6.25390625 8.10546875 C-8.58689285 8.06524484 -10.92097291 8.06226628 -13.25390625 8.10546875 C-13.25390625 9.42546875 -13.25390625 10.74546875 -13.25390625 12.10546875 C-12.37347656 12.33621094 -11.49304688 12.56695312 -10.5859375 12.8046875 C1.93806255 16.32141559 1.93806255 16.32141559 4.74609375 21.10546875 C5.6149687 25.98082266 5.50481443 29.75663198 3.05859375 34.10546875 C-1.9005981 38.39449954 -6.91026902 38.53495201 -13.234375 38.42578125 C-17.42845055 37.98087285 -20.98297079 36.82286128 -24.25390625 34.10546875 C-25.46484375 31.96484375 -25.46484375 31.96484375 -26.25390625 30.10546875 C-24.60390625 28.45546875 -22.95390625 26.80546875 -21.25390625 25.10546875 C-16.50190625 26.95346875 -16.50190625 26.95346875 -14.31640625 28.29296875 C-11.40744591 29.43892282 -9.243705 28.78496847 -6.25390625 28.10546875 C-5.92390625 26.78546875 -5.59390625 25.46546875 -5.25390625 24.10546875 C-6.05054688 23.9353125 -6.8471875 23.76515625 -7.66796875 23.58984375 C-13.64377284 22.22311483 -18.51469829 21.0761565 -23.25390625 17.10546875 C-25.11245907 13.38836312 -24.83299064 9.15269594 -24.25390625 5.10546875 C-18.85552636 -2.04373705 -8.23075575 -3.26662577 0 0 Z " fill="#020202" transform="translate(398.25390625,46.89453125)"/>
<path d="M0 0 C3.63 0 7.26 0 11 0 C11 12.54 11 25.08 11 38 C7.37 38 3.74 38 0 38 C0 25.46 0 12.92 0 0 Z " fill="#000100" transform="translate(179,46)"/>
<path d="M0 0 C3.5625 0.375 3.5625 0.375 5.5625 2 C6.92562615 5.2374246 6.64312449 7.06108489 5.5625 10.375 C3.24242867 12.28077288 1.98659109 12.39568737 -1 12.25 C-4.03026574 11.1622123 -5.00095877 10.24808245 -6.4375 7.375 C-6.08950328 2.50304588 -5.06160129 0.55217469 0 0 Z " fill="#020202" transform="translate(184.4375,30.625)"/>
<path d="" fill="#FFFFFF" transform="translate(0,0)"/>
<path d="" fill="#FFFFFF" transform="translate(0,0)"/>
<path d="" fill="#FFFFFF" transform="translate(0,0)"/>
<path d="" fill="#FFFFFF" transform="translate(0,0)"/>
<path d="" fill="#FFFFFF" transform="translate(0,0)"/>
<path d="" fill="#FFFFFF" transform="translate(0,0)"/>
<path d="" fill="#FFFFFF" transform="translate(0,0)"/>
<path d="" fill="#FFFFFF" transform="translate(0,0)"/>
<path d="" fill="#FFFFFF" transform="translate(0,0)"/>
<path d="" fill="#FFFFFF" transform="translate(0,0)"/>
<path d="" fill="#FFFFFF" transform="translate(0,0)"/>
<path d="" fill="#FFFFFF" transform="translate(0,0)"/>
<path d="" fill="#FFFFFF" transform="translate(0,0)"/>
<path d="" fill="#FFFFFF" transform="translate(0,0)"/>
<path d="" fill="#FFFFFF" transform="translate(0,0)"/>
<path d="" fill="#FFFFFF" transform="translate(0,0)"/>
<path d="" fill="#FFFFFF" transform="translate(0,0)"/>
<path d="" fill="#FFFFFF" transform="translate(0,0)"/>
<path d="" fill="#FFFFFF" transform="translate(0,0)"/>
<path d="" fill="#FFFFFF" transform="translate(0,0)"/>
<path d="" fill="#FFFFFF" transform="translate(0,0)"/>
<path d="" fill="#FFFFFF" transform="translate(0,0)"/>
<path d="" fill="#FFFFFF" transform="translate(0,0)"/>
<path d="" fill="#FFFFFF" transform="translate(0,0)"/>
<path d="" fill="#FFFFFF" transform="translate(0,0)"/>
<path d="" fill="#FFFFFF" transform="translate(0,0)"/>
<path d="" fill="#FFFFFF" transform="translate(0,0)"/>
<path d="" fill="#FFFFFF" transform="translate(0,0)"/>
<path d="" fill="#FFFFFF" transform="translate(0,0)"/>
<path d="" fill="#FFFFFF" transform="translate(0,0)"/>
<path d="" fill="#FFFFFF" transform="translate(0,0)"/>
<path d="" fill="#FFFFFF" transform="translate(0,0)"/>
<path d="" fill="#FFFFFF" transform="translate(0,0)"/>
<path d="" fill="#FFFFFF" transform="translate(0,0)"/>
<path d="" fill="#FFFFFF" transform="translate(0,0)"/>
</svg>
